<?xml version="1.0" encoding="utf-8"?>
<!-- Generator: Adobe Illustrator 27.4.1, SVG Export Plug-In . SVG Version: 6.00 Build 0)  -->
<svg version="1.1" id="Layer_1" xmlns="http://www.w3.org/2000/svg" xmlns:xlink="http://www.w3.org/1999/xlink" x="0px" y="0px"
	 viewBox="0 0 1080 1080" style="enable-background:new 0 0 1080 1080;" xml:space="preserve">
<g>
	<path d="M255.5,727.1c-77,0-126.9-58.6-126.9-132.9c0-73.2,50.4-132.9,126.9-132.9S383,521,383,594.2
		C383,668,332,727.1,255.5,727.1 M255.5,793.3c114.4,0,201.8-84.1,201.8-199.1c0-115.5-87.3-199.1-201.8-199.1
		S53.7,478.7,53.7,594.3S140,793.3,255.5,793.3"/>
	<path d="M255.5,617.7c-77,0-126.9-58.6-126.9-132.9c0-73.2,50.4-132.9,126.9-132.9S383,411.6,383,484.8
		C383,558.6,332,617.7,255.5,617.7 M255.5,683.9c114.4,0,201.8-84.1,201.8-199.1c0-115.5-87.3-199.1-201.8-199.1
		S53.7,369.3,53.7,484.8S140,683.9,255.5,683.9"/>
</g>
<polygon points="957.7,352.5 833,647.5 802.2,574.5 897.1,352.5 822.2,352.5 765.4,486.9 708.8,352.5 625.2,352.5 725.6,580.9 
	697.4,647.5 573.2,352.5 489.7,352.5 659.5,738.7 732.2,738.7 763.1,666.1 795,738.7 867.7,738.7 1032.6,352.5 "/>
</svg>
