<?xml version="1.0" encoding="utf-8"?>
<!-- Generator: Adobe Illustrator 27.4.1, SVG Export Plug-In . SVG Version: 6.00 Build 0)  -->
<svg version="1.1" id="Layer_1" xmlns="http://www.w3.org/2000/svg" xmlns:xlink="http://www.w3.org/1999/xlink" x="0px" y="0px"
	 viewBox="0 0 1031.4 540.6" style="enable-background:new 0 0 1031.4 540.6;" xml:space="preserve">
<g>
	<path d="M231.2,457.4c-77,0-126.9-58.6-126.9-132.9c0-73.2,50.4-132.9,126.9-132.9s127.5,59.7,127.5,132.9
		C358.7,398.3,307.7,457.4,231.2,457.4 M231.2,523.6c114.4,0,201.8-84.1,201.8-199.1c0-115.5-87.3-199.1-201.8-199.1
		S29.4,209,29.4,324.6S115.7,523.6,231.2,523.6"/>
	<path d="M231.2,348c-77,0-126.9-58.6-126.9-132.9c0-73.2,50.4-132.9,126.9-132.9s127.5,59.7,127.5,132.9
		C358.7,288.9,307.7,348,231.2,348 M231.2,414.2c114.4,0,201.8-84.1,201.8-199.1c0-115.5-87.3-199.1-201.8-199.1
		S29.4,99.6,29.4,215.1S115.7,414.2,231.2,414.2"/>
</g>
<polygon points="933.4,82.8 808.7,377.8 777.9,304.8 872.8,82.8 797.9,82.8 741.1,217.2 684.5,82.8 600.9,82.8 701.3,311.2 
	673.1,377.8 548.9,82.8 465.4,82.8 635.2,469 707.9,469 738.8,396.4 770.7,469 843.4,469 1008.3,82.8 "/>
</svg>
