<?xml version="1.0" encoding="utf-8"?>
<!-- Generator: Adobe Illustrator 27.4.1, SVG Export Plug-In . SVG Version: 6.00 Build 0)  -->
<svg version="1.1" id="Layer_1" xmlns="http://www.w3.org/2000/svg" xmlns:xlink="http://www.w3.org/1999/xlink" x="0px" y="0px"
	 viewBox="0 0 1779.7 129.1" style="enable-background:new 0 0 1779.7 129.1;" xml:space="preserve">
<style type="text/css">
	.st0{fill:#FFFFFF;}
</style>
<g>
	<path class="st0" d="M1726.5,62.7c0-10.4,6.6-17.6,16.8-17.6c10,0,16.2,7,16.2,17.6v35.6h17V59.4c0-17-11.1-29.3-27.8-29.3
		c-12.1,0-19.7,7.9-22.2,12.7V31.6h-16.8v66.8h16.8V62.7z M1660.5,43c8.6,0,14.8,4.8,17.3,13.2H1643
		C1645.1,47.8,1651.4,43,1660.5,43 M1660.5,29.9c-20.5,0-35,14.4-35,35.1c0,20.1,14.7,35.1,36.3,35.1c22.7,0,31.8-14.4,32.9-21.2
		h-16.6c-1.2,1.8-5.5,7.3-16.2,7.3c-11.1,0-18.7-7.9-19.4-18.3h53.1v-1.8C1695.5,44.1,1681.1,29.9,1660.5,29.9 M1616.9,83.3h-12.8
		c-9.1,0-11.9-3.4-11.9-11.9V46h24.7V31.6h-24.7V4.7h-16.9v26.9H1557V46h18.3v30.6c0,14.3,7.3,21.8,23.1,21.8h18.5L1616.9,83.3
		L1616.9,83.3z M1511.8,63.3c0-10.6,5.1-15.3,19.4-15.3h17.8V31.2h-15.6c-14.8,0-19.9,7.8-21.6,11.6V31.6H1495v66.8h16.8
		L1511.8,63.3L1511.8,63.3z M1459.9,65c0,11.4-7.3,20.1-18.2,20.1c-11.4,0-18.7-8.7-18.7-20.1s7.4-20.1,18.7-20.1
		C1452.6,44.9,1459.9,53.6,1459.9,65 M1459.7,98.4h16.8V31.6h-16.9v10c-1.5-2.8-8.2-11.5-22.3-11.5c-17.3,0-31.5,13.2-31.5,34.8
		c0,21.8,14.3,34.8,31.4,34.8c14.8,0,21.2-9.4,22.6-12L1459.7,98.4L1459.7,98.4z M1374.4,64.9c0,11.1-7.4,19.9-18.7,19.9
		c-11.6,0-19-8.8-19-19.9c0-11.2,7.4-19.9,19-19.9C1367,44.9,1374.4,53.6,1374.4,64.9 M1374.3,96.7c0,11.1-7,17.4-19.1,17.4
		c-11,0-14.7-5.5-15.7-6.9h-19.4c1.1,4.9,9.4,20.9,35.1,20.9c24.2,0,35.9-12.8,35.9-31.2V31.6h-16.9v10.2
		c-1.5-2.5-8.3-11.6-22.8-11.6c-17.4,0-31.8,12.9-31.8,34.7c0,21.6,14.4,34.7,31.8,34.7c14.5,0,21.5-9.2,23-12.1L1374.3,96.7
		L1374.3,96.7z M1255.6,62.7c0-10.4,6.6-17.6,16.8-17.6c10,0,16.2,7,16.2,17.6v35.6h17V59.4c0-17-11.1-29.3-27.8-29.3
		c-12.1,0-19.7,7.9-22.2,12.7V31.6h-16.8v66.8h16.8V62.7z M1203.6,98.4h16.9V31.6h-16.9V98.4z M1203.2,20.9h17.6V0.8h-17.6V20.9z
		 M1154.3,43c8.6,0,14.8,4.8,17.3,13.2h-34.8C1138.9,47.8,1145.2,43,1154.3,43 M1154.3,29.9c-20.5,0-35,14.4-35,35.1
		c0,20.1,14.7,35.1,36.3,35.1c22.7,0,31.8-14.4,32.9-21.2h-16.6c-1.2,1.8-5.5,7.3-16.2,7.3c-11.1,0-18.7-7.9-19.4-18.3h53.1v-1.8
		C1189.3,44.1,1174.9,29.9,1154.3,29.9 M932.7,72.3c7.5,0.9,9.9,3.4,9.9,7.5c0,4.2-4.4,7.4-13.7,7.4c-11.4,0-15.4-5.9-16.1-7.5
		h-18.1c1.3,6.2,9.4,20.6,34.2,20.6c20.5,0,30.9-8.6,30.9-21.1c0-13.2-7.4-20.1-25.5-21.6l-11.4-1.2c-6.7-0.9-9.5-3.3-9.5-7
		c0-4.1,4.2-6.7,12.3-6.7c10,0,13.9,4.6,15,6.1h17.8c-1.8-6.5-8.7-18.9-32.7-18.9c-18,0-29.4,7.9-29.4,20.5
		c0,12.9,9.9,19.8,24.5,20.9C925.6,71.6,927.9,71.9,932.7,72.3 M864.5,65c0,11.4-7.3,20.1-18.2,20.1c-11.4,0-18.7-8.7-18.7-20.1
		s7.4-20.1,18.7-20.1C857.2,44.9,864.5,53.6,864.5,65 M864.4,98.4h16.8V31.6h-16.9v10c-1.5-2.8-8.2-11.5-22.3-11.5
		c-17.3,0-31.5,13.2-31.5,34.8c0,21.8,14.3,34.8,31.4,34.8c14.8,0,21.2-9.4,22.6-12L864.4,98.4L864.4,98.4z M801.7,83.3h-12.8
		c-9.1,0-11.9-3.4-11.9-11.9V46h24.7V31.6H777V4.7h-16.9v26.9h-18.3V46h18.3v30.6c0,14.3,7.3,21.8,23.1,21.8h18.5L801.7,83.3
		L801.7,83.3z M713.9,98.4h16.9V31.6h-16.9V98.4z M713.5,20.9h17.6V0.8h-17.6V20.9z M678.5,98.4h16.9V1.2h-16.9V98.4z M608.5,65
		c0-11.5,7.5-20.1,19-20.1s18.9,8.6,18.9,20.1c0,11.4-7.4,20.1-18.9,20.1C616,85.1,608.5,76.3,608.5,65 M608.6,88.2
		c1.3,2.6,8.7,11.6,23.1,11.6c17.6,0,31.8-13.1,31.8-34.8s-14.3-34.8-31.8-34.8c-14.6,0-21.5,9.5-23,12v-41h-16.6v97.1h16.5V88.2z
		 M526.2,83.9c-18.7,0-30.9-14.3-30.9-32.3c0-17.8,12.3-32.3,30.9-32.3c18.6,0,31,14.5,31,32.3C557.2,69.5,544.8,83.9,526.2,83.9
		 M526.2,100c27.8,0,49.1-20.5,49.1-48.4c0-28.1-21.3-48.4-49.1-48.4s-49.1,20.3-49.1,48.4S498.1,100,526.2,100 M394.2,43
		c8.6,0,14.8,4.8,17.3,13.2h-34.8C378.8,47.8,385.1,43,394.2,43 M394.2,29.9c-20.5,0-35,14.4-35,35.1c0,20.1,14.7,35.1,36.3,35.1
		c22.7,0,31.8-14.4,32.9-21.2h-16.6c-1.2,1.8-5.5,7.3-16.2,7.3c-11.1,0-18.7-7.9-19.4-18.3h53.1v-1.8
		C429.2,44.1,414.8,29.9,394.2,29.9 M333.2,53.6H350c-1.1-7.3-9.1-23.8-32.9-23.8c-19.4,0-34.3,14.5-34.3,35.1s15,35.1,34.4,35.1
		c23.9,0,32.1-16.8,32.7-23.8h-16.5c-1.2,1.8-4.9,8.8-16,8.8c-10.6,0-17.6-9-17.6-20.2s7.1-20.2,17.4-20.2
		C328.1,44.8,332.2,51.9,333.2,53.6 M251.8,98.4h16.9V31.6h-16.9L251.8,98.4L251.8,98.4z M251.4,20.9H269V0.8h-17.6V20.9z
		 M237.6,45.9V31.6h-23.9v-6.5c0-6.7,3.2-10.4,10.6-10.4h17.4V1.2h-22.6c-15.3,0-22.3,7.5-22.3,20.6v9.8h-18.3v14.3h18.3v52.5h16.9
		V45.9H237.6z M169.4,45.9V31.6h-23.9v-6.5c0-6.7,3.2-10.4,10.6-10.4h17.4V1.2h-22.6c-15.3,0-22.3,7.5-22.3,20.6v9.8h-18.3v14.3
		h18.3v52.5h16.9V45.9H169.4z M50.2,83.9c-18.7,0-30.9-14.3-30.9-32.3c0-17.8,12.3-32.3,30.9-32.3s31,14.5,31,32.3
		C81.2,69.5,68.8,83.9,50.2,83.9 M50.2,100c27.9,0,49.1-20.5,49.1-48.4C99.3,23.4,78,3.1,50.2,3.1S1.1,23.4,1.1,51.5
		S22,100,50.2,100"/>
</g>
<polygon class="st0" points="1108.7,4.7 1078.3,76.6 1070.8,58.8 1093.9,4.7 1075.7,4.7 1061.8,37.5 1048,4.7 1027.7,4.7 
	1052.1,60.3 1045.3,76.6 1015,4.7 994.6,4.7 1036,98.8 1053.7,98.8 1061.3,81.1 1069,98.8 1086.7,98.8 1126.9,4.7 "/>
</svg>
