<?xml version="1.0" encoding="utf-8"?>
<!-- Generator: Adobe Illustrator 27.4.1, SVG Export Plug-In . SVG Version: 6.00 Build 0)  -->
<svg version="1.1" id="Layer_1" xmlns="http://www.w3.org/2000/svg" xmlns:xlink="http://www.w3.org/1999/xlink" x="0px" y="0px"
	 viewBox="0 0 1031.4 540.6" style="enable-background:new 0 0 1031.4 540.6;" xml:space="preserve">
<g>
	<path d="M222,459.6c-77.8,0-128.3-59.2-128.3-134.3c0-74,51-134.3,128.3-134.3s128.8,60.3,128.8,134.3
		C350.8,399.8,299.3,459.6,222,459.6 M222,526.5c115.7,0,203.9-85,203.9-201.2c0-116.8-88.3-201.2-203.9-201.2
		S18.1,208.5,18.1,325.3S105.2,526.5,222,526.5"/>
	<path d="M222,349c-77.8,0-128.3-59.2-128.3-134.3c0-74,51-134.3,128.3-134.3s128.8,60.3,128.8,134.3C350.8,289.3,299.3,349,222,349
		 M222,415.9c115.7,0,203.9-85,203.9-201.2c0-116.8-88.3-201.2-203.9-201.2S18.1,97.9,18.1,214.7S105.2,415.9,222,415.9"/>
</g>
<polygon points="937.7,80.9 811.7,379.1 777.6,298.2 870.3,80.9 794.7,80.9 740.3,209.6 686.1,80.9 601.7,80.9 700.1,304.7 
	668.6,379.1 543.1,80.9 458.7,80.9 630.2,471.2 703.7,471.2 738,390.9 773.3,471.2 846.8,471.2 1013.4,80.9 "/>
</svg>
