<?xml version="1.0" encoding="utf-8"?>
<!-- Generator: Adobe Illustrator 27.4.1, SVG Export Plug-In . SVG Version: 6.00 Build 0)  -->
<svg version="1.1" id="Layer_1" xmlns="http://www.w3.org/2000/svg" xmlns:xlink="http://www.w3.org/1999/xlink" x="0px" y="0px"
	 viewBox="0 0 1805.9 129.1" style="enable-background:new 0 0 1805.9 129.1;" xml:space="preserve">
<style type="text/css">
	.st0{fill:#231F20;}
</style>
<g>
	<path class="st0" d="M1754.8,61c0-10.4,6.6-17.6,16.8-17.6c10,0,16.2,7,16.2,17.6v35.6h17V57.7c0-17-11.1-29.3-27.8-29.3
		c-12.1,0-19.7,7.9-22.2,12.7V29.9H1738v66.8h16.8V61z M1688.8,41.3c8.6,0,14.8,4.8,17.3,13.2h-34.8
		C1673.4,46.1,1679.7,41.3,1688.8,41.3 M1688.8,28.2c-20.5,0-35,14.4-35,35.1c0,20.1,14.7,35.1,36.3,35.1
		c22.7,0,31.8-14.4,32.9-21.2h-16.6c-1.2,1.8-5.5,7.3-16.2,7.3c-11.1,0-18.7-7.9-19.4-18.3h53.1v-1.8
		C1723.8,42.4,1709.4,28.2,1688.8,28.2 M1645.2,81.6h-12.8c-9.1,0-11.9-3.4-11.9-11.9V44.3h24.7V29.9h-24.7V3h-16.9v26.9h-18.3v14.4
		h18.3v30.6c0,14.3,7.3,21.8,23.1,21.8h18.5V81.6z M1540.1,61.6c0-10.6,5.1-15.3,19.4-15.3h17.8V29.5h-15.6
		c-14.8,0-19.9,7.8-21.6,11.6V29.9h-16.8v66.8h16.8V61.6z M1488.2,63.3c0,11.4-7.3,20.1-18.2,20.1c-11.4,0-18.7-8.7-18.7-20.1
		c0-11.4,7.4-20.1,18.7-20.1C1480.9,43.2,1488.2,51.9,1488.2,63.3 M1488,96.7h16.8V29.9h-16.9v10c-1.5-2.8-8.2-11.5-22.3-11.5
		c-17.3,0-31.5,13.2-31.5,34.8c0,21.8,14.3,34.8,31.4,34.8c14.8,0,21.2-9.4,22.6-12V96.7z M1402.7,63.2c0,11.1-7.4,19.9-18.7,19.9
		c-11.6,0-19-8.8-19-19.9c0-11.2,7.4-19.9,19-19.9C1395.3,43.2,1402.7,51.9,1402.7,63.2 M1402.6,95c0,11.1-7,17.4-19.1,17.4
		c-11,0-14.7-5.5-15.7-6.9h-19.4c1.1,4.9,9.4,20.9,35.1,20.9c24.2,0,35.9-12.8,35.9-31.2V29.9h-16.9v10.2
		c-1.5-2.5-8.3-11.6-22.8-11.6c-17.4,0-31.8,12.9-31.8,34.7c0,21.6,14.4,34.7,31.8,34.7c14.5,0,21.5-9.2,23-12.1V95z M1283.9,61
		c0-10.4,6.6-17.6,16.8-17.6c10,0,16.2,7,16.2,17.6v35.6h17V57.7c0-17-11.1-29.3-27.8-29.3c-12.1,0-19.7,7.9-22.2,12.7V29.9h-16.8
		v66.8h16.8V61z M1231.9,96.7h16.9V29.9h-16.9V96.7z M1231.5,19.2h17.6V-0.9h-17.6V19.2z M1182.6,41.3c8.6,0,14.8,4.8,17.3,13.2
		h-34.8C1167.2,46.1,1173.5,41.3,1182.6,41.3 M1182.6,28.2c-20.5,0-35,14.4-35,35.1c0,20.1,14.7,35.1,36.3,35.1
		c22.7,0,31.8-14.4,32.9-21.2h-16.6c-1.2,1.8-5.5,7.3-16.2,7.3c-11.1,0-18.7-7.9-19.4-18.3h53.1v-1.8
		C1217.6,42.4,1203.2,28.2,1182.6,28.2 M1099,97.1h15.8L1145.7,3h-17.4l-21.5,67.3l-23.1-67.7H1068l-23,67.6L1023.5,3h-19.3
		l31.8,94.1h15.3l23.9-68.1L1099,97.1z M932.7,70.6c7.5,0.9,9.9,3.4,9.9,7.5c0,4.2-4.4,7.4-13.7,7.4c-11.4,0-15.4-5.9-16.1-7.5
		h-18.1c1.3,6.2,9.4,20.6,34.2,20.6c20.5,0,30.9-8.6,30.9-21.1c0-13.2-7.4-20.1-25.5-21.6l-11.4-1.2c-6.7-0.9-9.5-3.3-9.5-7
		c0-4.1,4.2-6.7,12.3-6.7c10,0,13.9,4.6,15,6.1h17.8c-1.8-6.5-8.7-18.9-32.7-18.9c-18,0-29.4,7.9-29.4,20.5
		c0,12.9,9.9,19.8,24.5,20.9C925.6,69.9,927.9,70.2,932.7,70.6 M864.5,63.3c0,11.4-7.3,20.1-18.2,20.1c-11.4,0-18.7-8.7-18.7-20.1
		c0-11.4,7.4-20.1,18.7-20.1C857.2,43.2,864.5,51.9,864.5,63.3 M864.4,96.7h16.8V29.9h-16.9v10c-1.5-2.8-8.2-11.5-22.3-11.5
		c-17.3,0-31.5,13.2-31.5,34.8c0,21.8,14.3,34.8,31.4,34.8c14.8,0,21.2-9.4,22.6-12V96.7z M801.7,81.6h-12.8
		c-9.1,0-11.9-3.4-11.9-11.9V44.3h24.7V29.9H777V3h-16.9v26.9h-18.3v14.4h18.3v30.6c0,14.3,7.3,21.8,23.1,21.8h18.5V81.6z
		 M713.9,96.7h16.9V29.9h-16.9V96.7z M713.5,19.2h17.6V-0.9h-17.6V19.2z M678.5,96.7h16.9V-0.5h-16.9V96.7z M608.5,63.3
		c0-11.5,7.5-20.1,19-20.1c11.5,0,18.9,8.6,18.9,20.1c0,11.4-7.4,20.1-18.9,20.1C616,83.4,608.5,74.6,608.5,63.3 M608.6,86.5
		c1.3,2.6,8.7,11.6,23.1,11.6c17.6,0,31.8-13.1,31.8-34.8s-14.3-34.8-31.8-34.8c-14.6,0-21.5,9.5-23,12V-0.5h-16.6v97.1h16.5V86.5z
		 M526.2,82.2c-18.7,0-30.9-14.3-30.9-32.3c0-17.8,12.3-32.3,30.9-32.3c18.6,0,31,14.5,31,32.3C557.2,67.8,544.8,82.2,526.2,82.2
		 M526.2,98.3c27.8,0,49.1-20.5,49.1-48.4c0-28.1-21.3-48.4-49.1-48.4c-27.8,0-49.1,20.3-49.1,48.4S498.1,98.3,526.2,98.3
		 M394.2,41.3c8.6,0,14.8,4.8,17.3,13.2h-34.8C378.8,46.1,385.1,41.3,394.2,41.3 M394.2,28.2c-20.5,0-35,14.4-35,35.1
		c0,20.1,14.7,35.1,36.3,35.1c22.7,0,31.8-14.4,32.9-21.2h-16.6c-1.2,1.8-5.5,7.3-16.2,7.3c-11.1,0-18.7-7.9-19.4-18.3h53.1v-1.8
		C429.2,42.4,414.8,28.2,394.2,28.2 M333.2,51.9H350c-1.1-7.3-9.1-23.8-32.9-23.8c-19.4,0-34.3,14.5-34.3,35.1s15,35.1,34.4,35.1
		c23.9,0,32.1-16.8,32.7-23.8h-16.5c-1.2,1.8-4.9,8.8-16,8.8c-10.6,0-17.6-9-17.6-20.2s7.1-20.2,17.4-20.2
		C328.1,43.1,332.2,50.2,333.2,51.9 M251.8,96.7h16.9V29.9h-16.9V96.7z M251.4,19.2h17.6V-0.9h-17.6V19.2z M237.6,44.2V29.9h-23.9
		v-6.5c0-6.7,3.2-10.4,10.6-10.4h17.4V-0.5h-22.6c-15.3,0-22.3,7.5-22.3,20.6v9.8h-18.3v14.3h18.3v52.5h16.9V44.2H237.6z
		 M169.4,44.2V29.9h-23.9v-6.5c0-6.7,3.2-10.4,10.6-10.4h17.4V-0.5h-22.6c-15.3,0-22.3,7.5-22.3,20.6v9.8h-18.3v14.3h18.3v52.5h16.9
		V44.2H169.4z M50.2,82.2c-18.7,0-30.9-14.3-30.9-32.3c0-17.8,12.3-32.3,30.9-32.3s31,14.5,31,32.3C81.2,67.8,68.8,82.2,50.2,82.2
		 M50.2,98.3c27.9,0,49.1-20.5,49.1-48.4C99.3,21.7,78,1.4,50.2,1.4S1.1,21.7,1.1,49.8S22,98.3,50.2,98.3"/>
</g>
</svg>
