<?xml version="1.0" encoding="utf-8"?>
<!-- Generator: Adobe Illustrator 27.4.1, SVG Export Plug-In . SVG Version: 6.00 Build 0)  -->
<svg version="1.1" id="Layer_1" xmlns="http://www.w3.org/2000/svg" xmlns:xlink="http://www.w3.org/1999/xlink" x="0px" y="0px"
	 viewBox="0 0 1805.9 129.1" style="enable-background:new 0 0 1805.9 129.1;" xml:space="preserve">
<style type="text/css">
	.st0{fill:#231F20;}
</style>
<path class="st0" d="M1099,97.1h15.8L1145.7,3h-17.4l-21.5,67.3l-23.1-67.7H1068l-23,67.6L1023.5,3h-19.3l31.8,94.1h15.3l23.9-68.1
	L1099,97.1z M526.2,82.2c-18.7,0-30.9-14.3-30.9-32.3c0-17.8,12.3-32.3,30.9-32.3c18.6,0,31,14.5,31,32.3
	C557.2,67.8,544.8,82.2,526.2,82.2 M526.2,98.3c27.8,0,49.1-20.5,49.1-48.4c0-28.1-21.3-48.4-49.1-48.4s-49.1,20.3-49.1,48.4
	S498.1,98.3,526.2,98.3 M50.2,82.2c-18.7,0-30.9-14.3-30.9-32.3c0-17.8,12.3-32.3,30.9-32.3s31,14.5,31,32.3
	C81.2,67.8,68.8,82.2,50.2,82.2 M50.2,98.3c27.9,0,49.1-20.5,49.1-48.4C99.3,21.7,78,1.4,50.2,1.4S1.1,21.7,1.1,49.8
	S22,98.3,50.2,98.3"/>
</svg>
