<?xml version="1.0" encoding="utf-8"?>
<!-- Generator: Adobe Illustrator 27.4.1, SVG Export Plug-In . SVG Version: 6.00 Build 0)  -->
<svg version="1.1" id="Layer_1" xmlns="http://www.w3.org/2000/svg" xmlns:xlink="http://www.w3.org/1999/xlink" x="0px" y="0px"
	 viewBox="0 0 1031.4 540.6" style="enable-background:new 0 0 1031.4 540.6;" xml:space="preserve">
<style type="text/css">
	.st0{fill:#FFFFFF;}
</style>
<g>
	<path class="st0" d="M214.7,468.1c-81,0-133.4-61.6-133.4-139.7c0-77,53-139.7,133.4-139.7s134.1,62.8,134.1,139.7
		C348.8,406,295.1,468.1,214.7,468.1 M214.7,537.7c120.3,0,212.2-88.4,212.2-209.4c0-121.5-91.8-209.4-212.2-209.4
		S2.5,206.9,2.5,328.5S93.3,537.7,214.7,537.7"/>
	<path class="st0" d="M214.7,353.1c-81,0-133.4-61.6-133.4-139.7c0-77,53-139.7,133.4-139.7s134.1,62.8,134.1,139.7
		C348.8,290.9,295.1,353.1,214.7,353.1 M214.7,422.7c120.3,0,212.2-88.4,212.2-209.4C426.9,91.9,335.1,4,214.7,4S2.5,91.9,2.5,213.3
		S93.3,422.7,214.7,422.7"/>
</g>
<polygon class="st0" points="953.1,74.2 822,384.4 789.6,307.7 889.4,74.2 810.6,74.2 750.9,215.5 691.4,74.2 603.5,74.2 709,314.4 
	679.4,384.4 548.8,74.2 461,74.2 639.5,480.3 716,480.3 748.5,404 782,480.3 858.4,480.3 1031.8,74.2 "/>
</svg>
