<?xml version="1.0" encoding="utf-8"?>
<!-- Generator: Adobe Illustrator 27.4.1, SVG Export Plug-In . SVG Version: 6.00 Build 0)  -->
<svg version="1.1" id="Layer_1" xmlns="http://www.w3.org/2000/svg" xmlns:xlink="http://www.w3.org/1999/xlink" x="0px" y="0px"
	 viewBox="0 0 32 32" style="enable-background:new 0 0 32 32;" xml:space="preserve">
<g>
	<path d="M7.1,22.2c-2.4,0-4-1.8-4-4.2c0-2.3,1.6-4.2,4-4.2s4,1.9,4,4.2C11.1,20.3,9.5,22.2,7.1,22.2 M7.1,24.3
		c3.6,0,6.4-2.7,6.4-6.3c0-3.6-2.8-6.3-6.4-6.3S0.8,14.3,0.8,18S3.5,24.3,7.1,24.3"/>
	<path d="M7.1,18.7c-2.4,0-4-1.8-4-4.2c0-2.3,1.6-4.2,4-4.2s4,1.9,4,4.2C11.1,16.9,9.5,18.7,7.1,18.7 M7.1,20.8
		c3.6,0,6.4-2.7,6.4-6.3c0-3.6-2.8-6.3-6.4-6.3s-6.4,2.6-6.4,6.3S3.5,20.8,7.1,20.8"/>
</g>
<polygon points="29.3,10.4 25.3,19.7 24.4,17.4 27.4,10.4 25,10.4 23.2,14.6 21.4,10.4 18.8,10.4 22,17.6 21.1,19.7 17.1,10.4 
	14.5,10.4 19.9,22.5 22.2,22.5 23.1,20.3 24.1,22.5 26.4,22.5 31.6,10.4 "/>
</svg>
